<svg xmlns="http://www.w3.org/2000/svg" version="1.1" xmlns:xlink="http://www.w3.org/1999/xlink" xmlns:svgjs="http://svgjs.dev/svgjs" width="1000" height="1000" viewBox="0 0 1000 1000"><rect width="1000" height="1000" fill="#000000"></rect><g transform="matrix(0.7,0,0,0.7,149.5757610973257,388.6788882780784)"><svg viewBox="0 0 396 126" data-background-color="#28353b" preserveAspectRatio="xMidYMid meet" height="318" width="1000" xmlns="http://www.w3.org/2000/svg" xmlns:xlink="http://www.w3.org/1999/xlink"><defs></defs><g id="tight-bounds" transform="matrix(1,0,0,1,0.23999804423363003,0.01195003127637051)"><svg viewBox="0 0 395.52 125.9760993544888" height="125.9760993544888" width="395.52"><g><svg viewBox="0 0 395.52 125.9760993544888" height="125.9760993544888" width="395.52"><g transform="matrix(1,0,0,1,0,75.77297977854748)"><svg viewBox="0 0 395.52 50.203119575941315" height="50.203119575941315" width="395.52"><g><svg viewBox="0 0 395.52 50.203119575941315" height="50.203119575941315" width="395.52"><g><svg viewBox="0 0 395.52 27.077163814180928" height="27.077163814180928" width="395.52"><g transform="matrix(1,0,0,1,0,0)"><svg width="395.52" viewBox="-0.30000001192092896 -32.79999923706055 490.3699951171875 33.599998474121094" height="27.077163814180928" data-palette-color="#ffffff"><g class="undefined-text-0" data-fill-palette-color="primary" id="text-0"><path d="M10 0.7Q9.3-2.3 7-11.4 4.7-20.5 3.3-25.3L3.3-25.3Q2.85-26.9 2.08-27.65 1.3-28.4-0.05-28.5L-0.05-28.5-0.3-28.9 0.05-32.3Q0.75-32.3 2.68-32.25 4.6-32.2 6.6-32.2L6.6-32.2Q9.15-32.2 11.95-32.35 14.75-32.5 15.55-32.55L15.55-32.55 15.85-32.1 15.6-28.6Q13.85-28.4 13.15-28.25 12.45-28.1 12.23-27.8 12-27.5 12-26.8L12-26.8Q12-25.6 13.6-17.85 15.2-10.1 15.8-7.3L15.8-7.3 16.7-7.3Q17.4-9.05 19.75-17.55 22.1-26.05 22.1-27.15L22.1-27.15Q22.1-27.9 21.65-28.18 21.2-28.45 19.95-28.45L19.95-28.45 18.25-28.45 17.95-28.85 18.3-32.4Q19.05-32.35 21.48-32.27 23.9-32.2 25.85-32.2L25.85-32.2Q27.9-32.2 29.58-32.25 31.25-32.3 31.8-32.3L31.8-32.3 31.45-28.55Q30.4-28.35 29.95-27.85 29.5-27.35 29-25.9L29-25.9 20.55-0.2 10 0.7ZM59.7-10.6L60.15-10Q59.25-5.25 58.75-0.3L58.75-0.3 58.15 0.35Q49.15 0 42.4 0L42.4 0Q37.85 0 32.95 0.5L32.95 0.5 33.35-3.4Q35.35-3.7 36.07-4.63 36.8-5.55 36.8-7.75L36.8-7.75 36.85-25.8Q36.85-27.4 36.55-27.95 36.25-28.5 35.35-28.5L35.35-28.5Q34.6-28.5 33.9-28.4L33.9-28.4 33.45-28.95 33.9-32.35 35-32.35Q42.95-32.2 44.1-32.2L44.1-32.2Q55-32.2 59.4-32.8L59.4-32.8 59.9-32.15Q59.5-30.2 59.17-27.5 58.85-24.8 58.75-22.7L58.75-22.7 53.25-22.35 53.35-24.25Q53.35-25.6 52.92-26.2 52.5-26.8 51.32-27.03 50.15-27.25 47.6-27.25L47.6-27.25Q46.15-27.25 45.75-27 45.35-26.75 45.35-25.75L45.35-25.75 45-18.85 49.45-18.8Q50.65-18.8 55.1-19.15L55.1-19.15 55.6-18.6 54.9-13.7Q49.95-13.85 48.6-13.85L48.6-13.85Q47.55-13.85 46.35-13.73 45.15-13.6 44.8-13.55L44.8-13.55 44.7-7.7Q44.7-6.3 44.9-5.7 45.1-5.1 45.67-4.9 46.25-4.7 47.6-4.7L47.6-4.7Q50.4-4.7 51.72-5.1 53.05-5.5 53.62-6.63 54.2-7.75 54.55-10.25L54.55-10.25 59.7-10.6ZM87.3 0.8Q85.45 0.8 84.12-0.33 82.8-1.45 81.75-3.8L81.75-3.8 77.95-12.1 74.75-12.1 74.7-7.45Q74.7-5.7 74.92-4.98 75.15-4.25 75.84-4 76.55-3.75 78.25-3.7L78.25-3.7 78.5-3.35 78 0.2 70.64 0Q68.59 0 66.12 0.15 63.65 0.3 62.9 0.35L62.9 0.35 63.34-3.5Q65.34-3.8 66.05-4.67 66.75-5.55 66.75-7.65L66.75-7.65 66.8-26.15Q66.8-27.5 66.47-28 66.14-28.5 65.3-28.5L65.3-28.5Q64.75-28.5 64.25-28.45 63.75-28.4 63.59-28.4L63.59-28.4 63.2-28.85 63.7-32.3Q64.45-32.3 66.42-32.25 68.39-32.2 70.3-32.2L70.3-32.2Q72.55-32.2 75.09-32.3 77.65-32.4 78.65-32.45L78.65-32.45Q84.84-32.45 88.07-30.2 91.3-27.95 91.3-23.55L91.3-23.55Q91.3-20.6 89.65-18.18 88-15.75 84.9-14.05L84.9-14.05 88.7-7.8Q90.05-5.55 91.32-4.5 92.59-3.45 93.94-3.45L93.94-3.45 94.4-2.8 94 0.25 87.3 0.8ZM79.09-16.8Q80.7-17.55 81.77-18.8 82.84-20.05 82.84-22.55L82.84-22.55Q82.84-25.05 81.2-26.25 79.55-27.45 76.15-27.45L76.15-27.45Q75.65-27.45 75.5-27.25 75.34-27.05 75.3-26.35L75.3-26.35Q75-22.05 74.9-17.3L74.9-17.3 79.09-16.8ZM111.34 0.35L111.04-0.05 111.29-3.6Q112.99-3.75 113.69-3.9 114.39-4.05 114.64-4.35 114.89-4.65 114.89-5.35L114.89-5.35Q114.89-5.5 114.69-6.7L114.69-6.7 113.94-9.7Q111.34-9.8 109.69-9.8L109.69-9.8Q108.54-9.8 106.34-9.6L106.34-9.6 105.24-9.5 104.34-6.4Q104.09-5.3 104.09-5L104.09-5Q104.09-4.25 104.52-3.98 104.94-3.7 106.09-3.7L106.09-3.7 107.89-3.7 108.19-3.3 107.79 0.25Q107.04 0.2 104.67 0.13 102.29 0.05 100.34 0.05L100.34 0.05 94.04 0.1 94.39-3.65Q95.44-3.85 96.14-4.58 96.84-5.3 97.34-6.7L97.34-6.7 105.84-31.95 115.99-32.75 116.64-32.35Q117.39-29.4 119.72-20.45 122.04-11.5 123.39-7.05L123.39-7.05Q123.89-5.3 124.67-4.53 125.44-3.75 126.89-3.65L126.89-3.65 127.19-3.2 126.79 0.15Q126.09 0.15 124.22 0.1 122.34 0.05 120.29 0.05L120.29 0.05Q117.49 0.05 114.79 0.18 112.09 0.3 111.34 0.35L111.34 0.35ZM106.64-14.6L109.74-14.6Q109.99-14.6 112.99-14.75L112.99-14.75 110.59-24.85 109.74-24.85 106.64-14.6ZM152.59 0.8Q150.74 0.8 149.42-0.33 148.09-1.45 147.04-3.8L147.04-3.8 143.24-12.1 140.04-12.1 139.99-7.45Q139.99-5.7 140.22-4.98 140.44-4.25 141.14-4 141.84-3.75 143.54-3.7L143.54-3.7 143.79-3.35 143.29 0.2 135.94 0Q133.89 0 131.41 0.15 128.94 0.3 128.19 0.35L128.19 0.35 128.64-3.5Q130.64-3.8 131.34-4.67 132.04-5.55 132.04-7.65L132.04-7.65 132.09-26.15Q132.09-27.5 131.77-28 131.44-28.5 130.59-28.5L130.59-28.5Q130.04-28.5 129.54-28.45 129.04-28.4 128.89-28.4L128.89-28.4 128.49-28.85 128.99-32.3Q129.74-32.3 131.72-32.25 133.69-32.2 135.59-32.2L135.59-32.2Q137.84-32.2 140.39-32.3 142.94-32.4 143.94-32.45L143.94-32.45Q150.14-32.45 153.37-30.2 156.59-27.95 156.59-23.55L156.59-23.55Q156.59-20.6 154.94-18.18 153.29-15.75 150.19-14.05L150.19-14.05 153.99-7.8Q155.34-5.55 156.62-4.5 157.89-3.45 159.24-3.45L159.24-3.45 159.69-2.8 159.29 0.25 152.59 0.8ZM144.39-16.8Q145.99-17.55 147.06-18.8 148.14-20.05 148.14-22.55L148.14-22.55Q148.14-25.05 146.49-26.25 144.84-27.45 141.44-27.45L141.44-27.45Q140.94-27.45 140.79-27.25 140.64-27.05 140.59-26.35L140.59-26.35Q140.29-22.05 140.19-17.3L140.19-17.3 144.39-16.8ZM175.44 0.6Q168.54 0.6 164.71-3.6 160.89-7.8 160.89-15.35L160.89-15.35Q160.89-20.75 162.84-24.68 164.79-28.6 168.49-30.7 172.19-32.8 177.24-32.8L177.24-32.8Q184.34-32.8 188.14-28.7 191.94-24.6 191.94-17L191.94-17Q191.94-11.6 189.94-7.63 187.94-3.65 184.21-1.53 180.49 0.6 175.44 0.6L175.44 0.6ZM176.59-4.55Q179.54-4.55 181.06-6.98 182.59-9.4 182.59-14.2L182.59-14.2Q182.59-20.8 180.96-23.95 179.34-27.1 175.99-27.1L175.99-27.1Q170.14-27.1 170.14-17.55L170.14-17.55Q170.14-10.95 171.76-7.75 173.39-4.55 176.59-4.55L176.59-4.55Z" fill="#ffffff" data-fill-palette-color="primary"></path><path d="M196.99 0.35L197.39-3.5Q199.59-3.7 200.59-4.1 201.59-4.5 201.97-5.43 202.34-6.35 202.34-8.3L202.34-8.3 202.34-27.4Q200.14-27.35 199.19-26.9 198.24-26.45 197.82-25.18 197.39-23.9 197.09-20.75L197.09-20.75 192.09-20.4Q192.49-26.25 192.59-32.15L192.59-32.15 193.19-32.75 198.59-32.2 214.19-32.2 219.74-32.75 220.29-32.15Q220.49-24.4 220.69-20.75L220.69-20.75 215.69-20.4Q215.34-23.85 214.97-25.18 214.59-26.5 213.72-26.93 212.84-27.35 210.69-27.4L210.69-27.4Q210.29-17.4 210.29-7.25L210.29-7.25Q210.29-5.4 210.92-4.63 211.54-3.85 212.99-3.85L212.99-3.85Q214.04-3.85 215.59-4L215.59-4 215.79-3.7 215.34 0.25Q207.99 0 206.04 0L206.04 0Q202.59 0 196.99 0.35L196.99 0.35ZM222.24 0.35L222.64-3.3Q224.74-3.75 225.41-4.55 226.09-5.35 226.09-7.45L226.09-7.45 226.14-25.9Q226.14-27.45 225.76-27.98 225.39-28.5 224.34-28.5L224.34-28.5Q223.59-28.5 222.79-28.4L222.79-28.4 222.44-28.95 222.84-32.25 230.24-32.2Q231.64-32.2 234.69-32.35L234.69-32.35 237.99-32.5 237.69-28.7Q235.84-28.45 235.26-27.95 234.69-27.45 234.59-26L234.59-26Q234.04-15.35 234.04-7.15L234.04-7.15Q234.04-5.05 234.39-4.38 234.74-3.7 235.84-3.7L235.84-3.7Q236.99-3.7 237.74-3.85L237.74-3.85 238.04-3.45 237.59 0.2Q232.69 0 229.79 0L229.79 0Q227.39 0 222.24 0.35L222.24 0.35ZM257.09 0.7Q253.39-11.85 250.28-20.75L250.28-20.75 249.74-20.75Q249.64-17.75 249.28-11.3L249.28-11.3 248.99-5.3Q248.99-3.65 250.64-3.65L250.64-3.65Q251.64-3.65 252.14-3.75L252.14-3.75 252.49-3.4 251.94 0.2 250.09 0.15Q247.64 0 245.53 0L245.53 0Q244.49 0 242.66 0.15 240.84 0.3 240.24 0.4L240.24 0.4 240.59-3.35Q241.94-3.55 242.56-4.28 243.19-5 243.53-6.85L243.53-6.85Q243.94-10.3 244.69-17.9 245.44-25.5 245.44-26.2L245.44-26.2Q245.44-27.15 245.19-27.6 244.94-28.05 244.21-28.28 243.49-28.5 241.94-28.65L241.94-28.65 241.59-29 242.09-32.45 244.49-32.35Q247.19-32.2 248.78-32.2L248.78-32.2Q250.94-32.2 253.28-32.35L253.28-32.35 255.09-32.4Q256.64-26.45 258.74-19.3L258.74-19.3 260.34-13.55 260.84-13.55Q261.49-15.75 261.64-16.1L261.64-16.1Q262.19-17.95 263.74-22.98 265.28-28 266.53-32.25L266.53-32.25Q268.09-32.25 268.94-32.2L268.94-32.2 271.78-32.15Q273.19-32.15 273.84-32.2L273.84-32.2Q275.03-32.25 278.74-32.5L278.74-32.5 279.03-32.3 278.69-28.75Q276.59-28.6 275.86-28.05 275.13-27.5 275.13-26.1L275.13-26.1Q275.13-24.25 275.51-18.28 275.88-12.3 276.28-8.2L276.28-8.2Q276.53-5.55 277.03-4.63 277.53-3.7 278.69-3.7L278.69-3.7Q279.64-3.7 280.14-3.8L280.14-3.8 280.39-3.45 279.94 0.15Q277.09 0 274.69 0L274.69 0Q273.24 0 270.44 0.15 267.64 0.3 266.53 0.4L266.53 0.4 267.03-3.4Q268.44-3.55 269.06-4.13 269.69-4.7 269.69-5.85L269.69-5.85 269.49-10.55Q269.14-15.85 268.99-20.75L268.99-20.75 268.49-20.75Q264.99-10.9 261.64 0.25L261.64 0.25 257.09 0.7ZM309.23-10.6L309.68-10Q308.78-5.25 308.28-0.3L308.28-0.3 307.68 0.35Q298.68 0 291.93 0L291.93 0Q287.38 0 282.48 0.5L282.48 0.5 282.88-3.4Q284.88-3.7 285.61-4.63 286.33-5.55 286.33-7.75L286.33-7.75 286.38-25.8Q286.38-27.4 286.08-27.95 285.78-28.5 284.88-28.5L284.88-28.5Q284.13-28.5 283.43-28.4L283.43-28.4 282.98-28.95 283.43-32.35 284.53-32.35Q292.48-32.2 293.63-32.2L293.63-32.2Q304.53-32.2 308.93-32.8L308.93-32.8 309.43-32.15Q309.03-30.2 308.71-27.5 308.38-24.8 308.28-22.7L308.28-22.7 302.78-22.35 302.88-24.25Q302.88-25.6 302.46-26.2 302.03-26.8 300.86-27.03 299.68-27.25 297.13-27.25L297.13-27.25Q295.68-27.25 295.28-27 294.88-26.75 294.88-25.75L294.88-25.75 294.53-18.85 298.98-18.8Q300.18-18.8 304.63-19.15L304.63-19.15 305.13-18.6 304.43-13.7Q299.48-13.85 298.13-13.85L298.13-13.85Q297.08-13.85 295.88-13.73 294.68-13.6 294.33-13.55L294.33-13.55 294.23-7.7Q294.23-6.3 294.43-5.7 294.63-5.1 295.21-4.9 295.78-4.7 297.13-4.7L297.13-4.7Q299.93-4.7 301.26-5.1 302.58-5.5 303.16-6.63 303.73-7.75 304.08-10.25L304.08-10.25 309.23-10.6ZM322.13 0.6Q319.68 0.6 317.63 0.15 315.58-0.3 314.23-0.83 312.88-1.35 312.88-1.4L312.88-1.4 312.38-2.2Q312.43-2.55 312.63-3.75 312.83-4.95 313.06-6.93 313.28-8.9 313.33-10.6L313.33-10.6 318.38-10.95Q318.38-7.45 319.53-6.1 320.68-4.75 323.43-4.75L323.43-4.75Q325.43-4.75 326.63-5.58 327.83-6.4 327.83-7.85L327.83-7.85Q327.83-9.35 326.41-10.35 324.98-11.35 321.98-12.7L321.98-12.7Q321.58-12.9 321.21-13.08 320.83-13.25 320.53-13.4L320.53-13.4Q316.93-15.1 314.83-17.15 312.73-19.2 312.73-22.5L312.73-22.5Q312.73-25.5 314.53-27.85 316.33-30.2 319.56-31.5 322.78-32.8 326.93-32.8L326.93-32.8Q329.23-32.8 331.23-32.5 333.23-32.2 334.43-31.88 335.63-31.55 335.93-31.45L335.93-31.45 336.38-30.6Q336.33-30.3 336.11-29.15 335.88-28 335.58-25.98 335.28-23.95 335.13-21.95L335.13-21.95 330.48-21.6 329.98-22 330.03-23.35Q330.03-25.35 328.98-26.25 327.93-27.15 325.68-27.15L325.68-27.15Q323.88-27.15 322.73-26.33 321.58-25.5 321.58-24.15L321.58-24.15Q321.58-23.05 322.43-22.2 323.28-21.35 324.43-20.73 325.58-20.1 328.03-19L328.03-19Q330.73-17.8 332.53-16.7 334.33-15.6 335.56-13.85 336.78-12.1 336.78-9.65L336.78-9.65Q336.78-6.55 334.98-4.23 333.18-1.9 329.88-0.65 326.58 0.6 322.13 0.6L322.13 0.6ZM339.73 0.35L340.08-3.3Q342.18-3.7 342.85-4.53 343.53-5.35 343.53-7.45L343.53-7.45 343.58-25.9Q343.58-27.45 343.23-27.98 342.88-28.5 341.78-28.5L341.78-28.5Q341.08-28.5 340.38-28.4L340.38-28.4 340.03-28.95 340.43-32.25 346.58-32.2Q347.13-32.2 352.23-32.4L352.23-32.4Q353.13-32.4 355.13-32.5L355.13-32.5 354.83-28.7Q353.58-28.5 353.03-28.2 352.48-27.9 352.25-27.33 352.03-26.75 351.98-25.5L351.98-25.5 351.68-18.85 357.18-18.7Q359.63-18.7 362.38-19L362.38-19 362.38-25.9Q362.38-27.45 362.03-27.98 361.68-28.5 360.58-28.5L360.58-28.5Q359.93-28.5 359.13-28.4L359.13-28.4 358.78-28.95 359.18-32.25 366.28-32.2Q367.48-32.2 370.48-32.35L370.48-32.35 374.23-32.5 373.93-28.75Q372.13-28.5 371.55-27.98 370.98-27.45 370.88-26L370.88-26Q370.63-22.3 370.45-17.03 370.28-11.75 370.28-7.6L370.28-7.6Q370.28-5.4 370.7-4.58 371.13-3.75 372.33-3.75L372.33-3.75Q372.93-3.75 373.98-3.9L373.98-3.9 374.28-3.45 373.83 0.1Q369.83 0 366.03 0L366.03 0 358.48 0.05 358.93-3.65Q360.88-3.7 361.63-4.6 362.38-5.5 362.38-7.9L362.38-7.9 362.38-13.75 357.98-13.8Q356.28-13.8 351.53-13.35L351.53-13.35 351.48-7.15Q351.48-5.05 351.83-4.38 352.18-3.7 353.28-3.7L353.28-3.7Q354.28-3.7 354.88-3.85L354.88-3.85 355.18-3.45 354.73 0.2Q351.13 0 347.83 0L347.83 0Q345.43 0 339.73 0.35L339.73 0.35ZM403.63-10.6L404.08-10Q403.18-5.25 402.68-0.3L402.68-0.3 402.08 0.35Q393.08 0 386.33 0L386.33 0Q381.78 0 376.88 0.5L376.88 0.5 377.28-3.4Q379.28-3.7 380-4.63 380.73-5.55 380.73-7.75L380.73-7.75 380.78-25.8Q380.78-27.4 380.48-27.95 380.18-28.5 379.28-28.5L379.28-28.5Q378.53-28.5 377.83-28.4L377.83-28.4 377.38-28.95 377.83-32.35 378.93-32.35Q386.88-32.2 388.03-32.2L388.03-32.2Q398.93-32.2 403.33-32.8L403.33-32.8 403.83-32.15Q403.43-30.2 403.1-27.5 402.78-24.8 402.68-22.7L402.68-22.7 397.18-22.35 397.28-24.25Q397.28-25.6 396.85-26.2 396.43-26.8 395.25-27.03 394.08-27.25 391.53-27.25L391.53-27.25Q390.08-27.25 389.68-27 389.28-26.75 389.28-25.75L389.28-25.75 388.93-18.85 393.38-18.8Q394.58-18.8 399.03-19.15L399.03-19.15 399.53-18.6 398.83-13.7Q393.88-13.85 392.53-13.85L392.53-13.85Q391.48-13.85 390.28-13.73 389.08-13.6 388.73-13.55L388.73-13.55 388.63-7.7Q388.63-6.3 388.83-5.7 389.03-5.1 389.6-4.9 390.18-4.7 391.53-4.7L391.53-4.7Q394.33-4.7 395.65-5.1 396.98-5.5 397.55-6.63 398.13-7.75 398.48-10.25L398.48-10.25 403.63-10.6ZM433.57-10.6L434.02-10Q433.12-5.25 432.62-0.3L432.62-0.3 432.02 0.35Q423.02 0 416.27 0L416.27 0Q411.72 0 406.82 0.5L406.82 0.5 407.22-3.4Q409.22-3.7 409.95-4.63 410.67-5.55 410.67-7.75L410.67-7.75 410.72-25.8Q410.72-27.4 410.42-27.95 410.12-28.5 409.22-28.5L409.22-28.5Q408.47-28.5 407.77-28.4L407.77-28.4 407.32-28.95 407.77-32.35 408.87-32.35Q416.82-32.2 417.97-32.2L417.97-32.2Q428.87-32.2 433.27-32.8L433.27-32.8 433.77-32.15Q433.37-30.2 433.05-27.5 432.72-24.8 432.62-22.7L432.62-22.7 427.12-22.35 427.22-24.25Q427.22-25.6 426.8-26.2 426.37-26.8 425.2-27.03 424.02-27.25 421.47-27.25L421.47-27.25Q420.02-27.25 419.62-27 419.22-26.75 419.22-25.75L419.22-25.75 418.87-18.85 423.32-18.8Q424.52-18.8 428.97-19.15L428.97-19.15 429.47-18.6 428.77-13.7Q423.82-13.85 422.47-13.85L422.47-13.85Q421.42-13.85 420.22-13.73 419.02-13.6 418.67-13.55L418.67-13.55 418.57-7.7Q418.57-6.3 418.77-5.7 418.97-5.1 419.55-4.9 420.12-4.7 421.47-4.7L421.47-4.7Q424.27-4.7 425.6-5.1 426.92-5.5 427.5-6.63 428.07-7.75 428.42-10.25L428.42-10.25 433.57-10.6ZM440.47 0.35L440.87-3.5Q443.07-3.7 444.07-4.1 445.07-4.5 445.45-5.43 445.82-6.35 445.82-8.3L445.82-8.3 445.82-27.4Q443.62-27.35 442.67-26.9 441.72-26.45 441.3-25.18 440.87-23.9 440.57-20.75L440.57-20.75 435.57-20.4Q435.97-26.25 436.07-32.15L436.07-32.15 436.67-32.75 442.07-32.2 457.67-32.2 463.22-32.75 463.77-32.15Q463.97-24.4 464.17-20.75L464.17-20.75 459.17-20.4Q458.82-23.85 458.44-25.18 458.07-26.5 457.19-26.93 456.32-27.35 454.17-27.4L454.17-27.4Q453.77-17.4 453.77-7.25L453.77-7.25Q453.77-5.4 454.4-4.63 455.02-3.85 456.47-3.85L456.47-3.85Q457.52-3.85 459.07-4L459.07-4 459.27-3.7 458.82 0.25Q451.47 0 449.52 0L449.52 0Q446.07 0 440.47 0.35L440.47 0.35ZM475.42 0.6Q472.97 0.6 470.92 0.15 468.87-0.3 467.52-0.83 466.17-1.35 466.17-1.4L466.17-1.4 465.67-2.2Q465.72-2.55 465.92-3.75 466.12-4.95 466.34-6.93 466.57-8.9 466.62-10.6L466.62-10.6 471.67-10.95Q471.67-7.45 472.82-6.1 473.97-4.75 476.72-4.75L476.72-4.75Q478.72-4.75 479.92-5.58 481.12-6.4 481.12-7.85L481.12-7.85Q481.12-9.35 479.69-10.35 478.27-11.35 475.27-12.7L475.27-12.7Q474.87-12.9 474.49-13.08 474.12-13.25 473.82-13.4L473.82-13.4Q470.22-15.1 468.12-17.15 466.02-19.2 466.02-22.5L466.02-22.5Q466.02-25.5 467.82-27.85 469.62-30.2 472.84-31.5 476.07-32.8 480.22-32.8L480.22-32.8Q482.52-32.8 484.52-32.5 486.52-32.2 487.72-31.88 488.92-31.55 489.22-31.45L489.22-31.45 489.67-30.6Q489.62-30.3 489.39-29.15 489.17-28 488.87-25.98 488.57-23.95 488.42-21.95L488.42-21.95 483.77-21.6 483.27-22 483.32-23.35Q483.32-25.35 482.27-26.25 481.22-27.15 478.97-27.15L478.97-27.15Q477.17-27.15 476.02-26.33 474.87-25.5 474.87-24.15L474.87-24.15Q474.87-23.05 475.72-22.2 476.57-21.35 477.72-20.73 478.87-20.1 481.32-19L481.32-19Q484.02-17.8 485.82-16.7 487.62-15.6 488.84-13.85 490.07-12.1 490.07-9.65L490.07-9.65Q490.07-6.55 488.27-4.23 486.47-1.9 483.17-0.65 479.87 0.6 475.42 0.6L475.42 0.6Z" fill="#ffffff" data-fill-palette-color="accent"></path></g></svg></g></svg></g><g transform="matrix(1,0,0,1,0,33.4694323387775)"><svg viewBox="0 0 395.52 16.733687237163814" height="16.733687237163814" width="395.52"><g transform="matrix(1,0,0,1,0,0)"><svg width="395.52" viewBox="3.1500000953674316 -42.95000076293945 1035.260009765625 43.79999923706055" height="16.733687237163814" data-palette-color="#ffffff"><path d="M16.1 0.85Q8.85 0.85 3.15-1.85L3.15-1.85 3.15-6.45Q8.9-3.4 16.1-3.4L16.1-3.4Q20.25-3.4 22.18-5.15 24.1-6.9 24.1-9.75L24.1-9.75Q24.1-12.45 22.33-13.8 20.55-15.15 17.1-16.15L17.1-16.15 13.7-17.1Q10.8-17.95 8.75-19.05 6.7-20.15 5.33-22.23 3.95-24.3 3.95-27.65L3.95-27.65Q3.95-33 7.08-35.8 10.2-38.6 15.95-38.6L15.95-38.6Q19.3-38.6 21.85-37.98 24.4-37.35 27.15-36.1L27.15-36.1 27.15-31.6Q22.05-34.35 15.95-34.35L15.95-34.35Q12.25-34.35 10.55-32.63 8.85-30.9 8.85-27.9L8.85-27.9Q8.9-25.15 10.53-23.85 12.15-22.55 15.6-21.55L15.6-21.55 19.05-20.6Q22.1-19.75 24.23-18.63 26.35-17.5 27.68-15.38 29-13.25 29-9.85L29-9.85Q28.95-4.9 25.53-2.02 22.1 0.85 16.1 0.85L16.1 0.85ZM165.88 0.85Q161.48 0.85 158.41-1.07 155.33-3 153.78-6.33 152.23-9.65 152.23-13.8L152.23-13.8Q152.23-17.95 153.78-21.28 155.33-24.6 158.41-26.53 161.48-28.45 165.88-28.45L165.88-28.45Q170.28-28.45 173.36-26.53 176.43-24.6 177.96-21.28 179.48-17.95 179.48-13.8L179.48-13.8Q179.48-9.65 177.96-6.33 176.43-3 173.36-1.07 170.28 0.85 165.88 0.85L165.88 0.85ZM165.88-3.4Q170.03-3.4 172.31-6.3 174.58-9.2 174.58-13.8L174.58-13.8Q174.58-18.4 172.31-21.28 170.03-24.15 165.88-24.15L165.88-24.15Q161.73-24.15 159.43-21.28 157.13-18.4 157.13-13.8L157.13-13.8Q157.13-9.2 159.43-6.3 161.73-3.4 165.88-3.4L165.88-3.4ZM312.51-38.6Q310.76-38.6 310.14-37.88 309.51-37.15 309.51-35.15L309.51-35.15 309.51-27.65 315.01-27.65 315.01-23.25 309.51-23.25 309.51 0 304.81 0 304.81-23.25 301.41-23.25 301.41-27.65 304.81-27.65 304.81-36.4Q304.81-39.95 306.46-41.45 308.11-42.95 311.86-42.95L311.86-42.95Q313.06-42.95 315.01-42.6L315.01-42.6 315.01-38.3Q313.86-38.6 312.51-38.6L312.51-38.6ZM450.09-22.95L443.69-22.95 443.69-7.15Q443.69-5.15 444.32-4.42 444.94-3.7 446.64-3.7L446.64-3.7Q448.14-3.7 449.84-4.1L449.84-4.1 449.84 0.15Q447.59 0.65 445.84 0.65L445.84 0.65Q442.04 0.65 440.52-0.9 438.99-2.45 438.99-6.1L438.99-6.1 438.99-22.95 435.39-22.95 435.39-27.3 438.99-27.3 438.99-36.8 443.69-36.8 443.69-27.3 450.09-27.3 450.09-22.95ZM606.52-27.65L611.42-27.65 602.92 0.45 597.87 0.45 591.02-20.75 584.22 0.45 579.17 0.45 570.62-27.65 575.52-27.65 581.72-5.7 588.32-27.65 593.72-27.65 600.37-5.7 606.52-27.65ZM742.85-27.65Q747.25-27.65 749.55-26.18 751.85-24.7 752.6-22.23 753.35-19.75 753.35-16L753.35-16 753.35 0 748.65 0 748.65-2.75Q746.75-0.95 744.85-0.15 742.95 0.65 740.75 0.65L740.75 0.65Q738.15 0.65 736.05-0.48 733.95-1.6 732.73-3.73 731.5-5.85 731.5-8.75L731.5-8.75Q731.5-13.25 734.3-15.73 737.1-18.2 741.85-18.2L741.85-18.2Q745.6-18.2 748.6-16.55L748.6-16.55Q748.55-19 748.1-20.45 747.65-21.9 746.25-22.68 744.85-23.45 742.1-23.45L742.1-23.45 738.4-23.45 738.4-27.65 742.85-27.65ZM741.4-3.4Q743.1-3.4 744.98-4.2 746.85-5 748.65-6.6L748.65-6.6 748.65-12.9Q745.85-14.3 742.55-14.3L742.55-14.3Q739.9-14.3 738.1-13.03 736.3-11.75 736.3-8.75L736.3-8.75Q736.3-5.95 737.83-4.67 739.35-3.4 741.4-3.4L741.4-3.4ZM891.43-28.25L892.58-28.25 892.58-23.85 891.43-23.85Q887.13-23.85 883.08-20.4L883.08-20.4 883.08 0 878.38 0 878.38-27.65 883.08-27.65 883.08-24.55Q887.18-28.25 891.43-28.25L891.43-28.25ZM1019.06-13.45Q1019.16-8.85 1021.36-6.1 1023.56-3.35 1028.36-3.35L1028.36-3.35Q1032.01-3.35 1036.36-5.4L1036.36-5.4 1037.81-1.5Q1033.26 0.85 1027.96 0.85L1027.96 0.85Q1023.56 0.85 1020.46-1 1017.36-2.85 1015.76-6.15 1014.16-9.45 1014.16-13.85L1014.16-13.85Q1014.16-18.5 1015.84-21.78 1017.51-25.05 1020.36-26.75 1023.21-28.45 1026.76-28.45L1026.76-28.45Q1032.21-28.45 1035.31-25.05 1038.41-21.65 1038.41-15.3L1038.41-15.3 1038.41-13.45 1019.06-13.45ZM1026.76-24.25Q1020.56-24.25 1019.36-17.4L1019.36-17.4 1033.46-17.4Q1033.21-20.9 1031.56-22.58 1029.91-24.25 1026.76-24.25L1026.76-24.25Z" opacity="1" transform="matrix(1,0,0,1,0,0)" fill="#ffffff" class="undefined-text-1" data-fill-palette-color="secondary" id="text-1"></path></svg></g></svg></g></svg></g></svg></g><g transform="matrix(1,0,0,1,163.06895094703162,0)"><svg viewBox="0 0 69.38209810593673 69.3807112539509" height="69.3807112539509" width="69.38209810593673"><g><svg xmlns="http://www.w3.org/2000/svg" viewBox="0 0 100.00199890136719 100" xml:space="preserve" width="69.38209810593673" height="69.3807112539509" x="0" y="0" class="icon-icon-0" data-fill-palette-color="accent" id="icon-0"><path d="M50 0C22.383 0 0 22.385 0 50c0 27.618 22.383 50 50 50s50.002-22.383 50.002-50c0-27.615-22.385-50-50.002-50z m1.785 91.027v-7.099h-5.952v7.099c-17.857-1.444-35.416-19.003-36.861-36.86h7.099v-5.953H8.972C10.417 27.976 27.976 10.415 45.833 8.97v10.673h5.952V8.97c20.238 1.445 37.799 19.006 39.242 39.245h-10.67v5.953h10.67c-1.443 17.856-19.004 35.415-39.242 36.859z" fill="#ffffff" data-fill-palette-color="accent"></path><path d="M50.073 44.641c-0.107-0.006-0.209-0.032-0.317-0.032-0.653 0-1.27 0.133-1.854 0.337L30.268 32.479l13.915 18.407c0.321 2.809 2.679 4.999 5.573 4.999a5.64 5.64 0 0 0 5.516-6.806L76.84 22.793 50.073 44.641z" fill="#ffffff" data-fill-palette-color="accent"></path></svg></g></svg></g><g></g></svg></g></svg><rect width="395.52" height="125.9760993544888" fill="none" stroke="none" visibility="hidden"></rect></g></svg></g></svg>